<?xml version="1.0" standalone="no"?>
<!DOCTYPE svg PUBLIC "-//W3C//DTD SVG 20010904//EN"
 "http://www.w3.org/TR/2001/REC-SVG-20010904/DTD/svg10.dtd">
<svg version="1.0" xmlns="http://www.w3.org/2000/svg"
 width="264.000000pt" height="264.000000pt" viewBox="0 0 264.000000 264.000000"
 preserveAspectRatio="xMidYMid meet">
<metadata>
Created by potrace 1.14, written by Peter Selinger 2001-2017
</metadata>
<g transform="translate(0.000000,264.000000) scale(0.100000,-0.100000)"
fill="#000000" stroke="none">
<path d="M898 2115 c-1 -1 -75 -5 -163 -9 -325 -13 -359 -16 -364 -24 -6 -8
-102 -135 -246 -322 -36 -46 -64 -91 -63 -100 3 -12 25 -16 123 -18 66 -2 122
-7 123 -13 2 -5 7 -7 11 -4 5 2 6 -7 3 -20 -2 -14 -7 -23 -11 -21 -4 3 -5 -10
-3 -29 2 -18 -1 -36 -7 -39 -6 -4 -8 -20 -4 -38 4 -19 2 -29 -4 -25 -5 3 -8
-8 -7 -29 2 -25 0 -33 -9 -27 -7 4 -7 0 2 -10 9 -11 10 -17 2 -17 -7 0 -10
-10 -7 -25 3 -15 0 -25 -7 -25 -7 0 -6 -4 3 -10 9 -6 11 -10 3 -10 -7 0 -10
-7 -7 -15 4 -9 0 -15 -7 -15 -12 0 -12 -2 0 -9 8 -5 9 -11 3 -15 -6 -3 -9 -18
-6 -31 2 -14 0 -25 -4 -25 -5 0 -7 -11 -4 -25 2 -14 0 -25 -4 -25 -5 0 -10
-19 -10 -43 -3 -67 -8 -107 -14 -107 -3 0 -6 -19 -7 -41 0 -23 -6 -45 -13 -49
-9 -6 -9 -9 1 -13 9 -4 11 -8 4 -14 -6 -4 -12 -39 -14 -78 -1 -38 -5 -73 -7
-77 -3 -4 0 -8 6 -8 7 0 10 -7 6 -15 -3 -8 -1 -15 5 -15 6 0 8 -4 5 -8 -5 -8
58 -83 69 -82 21 1 25 -1 20 -9 -3 -6 6 -8 21 -5 14 3 23 1 20 -4 -3 -5 1 -9
9 -9 8 0 12 4 9 9 -3 4 6 4 19 -1 14 -6 28 -7 31 -4 3 4 6 0 6 -8 0 -11 2 -11
10 1 9 13 10 13 10 0 0 -13 1 -13 10 0 8 13 10 13 10 0 0 -11 3 -11 12 -2 7 7
17 12 22 12 6 0 4 -5 -4 -10 -12 -8 -10 -10 10 -9 14 1 34 -2 44 -6 15 -7 17
-5 11 6 -8 12 -6 12 8 0 12 -9 17 -10 17 -2 0 8 7 7 22 -3 16 -11 25 -13 35
-4 10 8 13 7 13 -2 0 -10 3 -10 15 0 12 10 15 10 15 0 0 -10 4 -10 16 1 13 10
17 10 24 -2 8 -12 13 -12 31 -1 14 9 19 10 14 2 -5 -9 -1 -10 15 -5 15 5 20 3
16 -3 -3 -6 -2 -14 4 -17 6 -4 9 -1 8 6 -4 14 40 20 63 8 10 -5 21 -3 29 4 10
9 11 9 6 0 -3 -6 -2 -14 4 -18 5 -3 10 0 10 9 0 15 24 16 37 1 5 -4 1 -5 -7 0
-9 5 -12 4 -7 -1 4 -4 21 -9 37 -9 22 -1 26 2 19 11 -8 9 -5 11 10 7 12 -3 19
-9 16 -12 -2 -4 2 -8 10 -8 8 0 11 5 8 11 -3 6 -3 8 2 4 4 -4 15 -2 23 5 11 8
14 8 9 0 -4 -6 -3 -14 3 -18 5 -3 10 0 10 7 0 8 3 9 8 3 10 -15 38 -12 34 4
-1 7 2 10 8 6 6 -3 8 -10 5 -15 -3 -4 2 -10 10 -13 9 -4 12 -1 9 7 -4 10 3 13
25 12 16 0 27 -4 25 -8 -3 -5 -1 -8 5 -8 5 0 12 6 14 13 4 9 6 9 6 0 1 -7 8
-13 17 -13 8 0 13 4 10 9 -7 10 44 9 62 -2 7 -5 12 -3 12 5 0 10 2 10 9 -1 6
-10 10 -10 16 -1 6 9 10 9 16 -1 7 -11 9 -11 9 1 0 13 1 13 10 0 7 -11 10 -11
10 -2 0 7 5 10 10 7 6 -4 8 -12 4 -18 -3 -7 2 -3 10 7 9 11 16 14 16 7 0 -7 5
-9 13 -4 18 11 37 12 37 2 0 -11 23 -7 32 6 5 6 8 5 8 -2 0 -7 4 -13 10 -13 5
0 7 8 3 18 -5 14 -3 13 10 -3 13 -15 17 -16 17 -5 0 11 4 10 17 -5 15 -20 15
-20 10 2 -3 15 -1 20 9 16 8 -3 11 -9 8 -14 -3 -5 -1 -9 5 -9 5 0 12 6 14 13
4 9 8 8 16 -3 7 -9 11 -10 11 -3 0 8 19 12 58 11 117 -1 144 1 136 15 -8 13
24 -10 39 -28 5 -6 7 -3 3 7 -3 10 -2 19 2 19 32 6 51 5 46 -2 -3 -5 2 -9 10
-9 9 0 16 4 16 9 0 10 26 9 36 -2 4 -4 12 -7 18 -7 6 0 4 5 -4 10 -12 8 -10
10 10 7 14 -1 31 -6 37 -10 9 -6 11 -3 7 7 -8 20 0 20 20 0 14 -14 16 -14 16
0 0 10 6 13 15 10 9 -4 15 -1 15 7 0 7 6 5 14 -7 14 -18 15 -18 21 -1 7 17 8
17 21 0 11 -14 13 -14 9 -2 -4 10 0 16 9 16 8 0 13 -3 11 -7 -2 -3 9 -6 25 -5
24 0 26 2 17 15 -6 8 -8 12 -3 8 5 -4 18 -2 30 4 20 11 20 10 6 -8 -15 -18
-14 -18 14 0 18 11 25 13 20 5 -6 -11 -5 -12 8 -2 8 7 19 9 23 5 5 -4 5 -1 1
6 -7 11 5 17 27 13 5 -1 6 3 3 8 -4 5 1 14 10 19 9 5 17 13 17 18 1 5 6 8 10
6 5 -1 6 2 2 8 -4 6 -1 18 7 27 11 14 11 16 -2 8 -13 -7 -13 -6 -2 7 7 8 9 24
5 33 -4 11 -2 16 4 12 5 -3 10 0 10 8 0 8 -4 12 -9 9 -4 -3 -8 0 -8 5 0 6 6
11 13 11 9 0 9 2 0 8 -17 11 -24 72 -9 72 8 0 8 2 0 8 -6 4 -14 20 -18 35 -5
22 -4 27 6 21 8 -5 6 2 -4 18 -12 19 -14 28 -5 37 8 8 8 11 -2 11 -7 0 -10 4
-6 9 3 5 0 13 -5 16 -7 5 -5 12 7 21 15 12 15 13 1 8 -12 -4 -16 -1 -14 13 2
10 -1 24 -7 31 -6 8 -5 12 4 12 11 0 11 2 -1 10 -12 8 -13 12 -2 19 11 7 11 9
-2 14 -9 4 -16 11 -16 17 0 6 6 8 13 4 9 -6 9 -4 1 7 -6 8 -10 24 -9 36 1 13
-1 23 -5 23 -5 0 -11 38 -13 88 -1 12 -5 22 -10 22 -5 0 -4 6 2 14 9 10 9 16
1 21 -6 4 -10 14 -8 23 1 10 -1 23 -6 30 -4 7 -2 19 5 28 10 12 10 15 -2 12
-8 -2 -15 7 -17 21 -3 16 0 21 8 16 7 -4 4 4 -5 19 -14 21 -15 29 -5 41 10 12
9 16 -4 21 -14 5 -14 9 -4 22 7 9 8 13 2 9 -6 -3 -11 0 -11 7 0 13 34 16 215
19 29 0 32 3 32 29 0 22 -24 61 -92 150 -205 265 -207 268 -241 269 -60 1
-192 8 -267 15 -75 6 -1055 15 -1062 9z"/>
<path d="M0 1664 c0 -14 4 -23 9 -19 11 6 10 45 -1 45 -4 0 -8 -12 -8 -26z"/>
</g>
</svg>
